<?xml version="1.0" encoding="utf-8"?>
<svg viewBox="0 0 500 500" xmlns="http://www.w3.org/2000/svg" xmlns:bx="https://boxy-svg.com">
  <path style="fill: rgb(216, 216, 216); stroke: rgb(0, 0, 0);" d="M 209.807 70.304 C 210.621 66.805 306.411 311.447 304.282 320.604 L 313.5 313.169 L 216.721 65.347 L 142.984 60.391 L 147.593 70.304 L 209.807 70.304 Z"/>
  <path style="fill: rgb(216, 216, 216); stroke: rgb(0, 0, 0);" d="M 242.48 197.158 L 239.87099999999998 198.32949999999997 C 237.26199999999997 199.50099999999998 232.04399999999998 201.84400000000002 235.17483333333334 216.83916666666667 C 238.30566666666664 231.83433333333335 249.78533333333334 259.4816666666667 261.26516666666663 273.5396666666667 C 272.74499999999995 287.5976666666667 284.22499999999997 288.0663333333334 288.9215 284.5520000000001 C 293.618 281.03766666666667 291.531 273.54033333333336 288.4001666666667 262.99683333333337 C 285.26933333333335 252.45333333333335 281.0946666666667 238.86366666666666 275.35433333333333 227.38283333333334 C 269.61400000000003 215.90200000000002 262.308 206.52999999999997 258.65500000000003 201.84399999999997 L 255.002 197.158" bx:d="M 242.48 197.158 U 226.826 204.187 U 261.265 287.129 U 295.705 288.535 U 289.444 266.043 U 276.92 225.274 U 255.002 197.158 1@f1384b61"/>
  <rect x="294.849" y="314.387" width="65.72" height="11.545" rx="8" ry="8" style="fill: rgb(216, 216, 216); stroke: rgb(0, 0, 0);"/>
  <rect x="353.464" y="158.97" width="7.993" height="0.888" rx="8" ry="8" style="fill: rgb(216, 216, 216); stroke: rgb(0, 0, 0);"/>
</svg>